<svg width="120" height="120" viewBox="0 0 120 120" fill="none" xmlns="http://www.w3.org/2000/svg">
<rect width="120" height="120" rx="60" fill="#57457B"/>
<path d="M41.1287 78.5C40.6704 73.0417 40.2537 67.7083 39.8787 62.5C39.5037 57.25 39.1287 51.9167 38.7537 46.5C38.7121 46.0417 38.7746 45.625 38.9412 45.25C39.1496 44.8333 39.3787 44.5417 39.6287 44.375C39.9204 44.1667 40.2537 44.1042 40.6287 44.1875C41.0037 44.2708 41.3579 44.5625 41.6912 45.0625C41.6496 47.0208 41.7746 49.375 42.0662 52.125C42.3996 54.8333 42.7537 57.625 43.1287 60.5C43.5454 63.375 43.8996 66.1458 44.1912 68.8125C44.5246 71.4792 44.6704 73.7292 44.6287 75.5625C44.6287 77.3958 44.3579 78.6458 43.8162 79.3125C43.3162 79.9375 42.4204 79.6667 41.1287 78.5ZM62.1213 79.0625C61.2879 78.1458 61.0796 77.2917 61.4963 76.5C61.9129 75.6667 62.6004 74.9583 63.5588 74.375C64.5588 73.75 65.6421 73.2708 66.8088 72.9375C67.9754 72.6042 68.8713 72.5 69.4963 72.625C69.6629 73 69.6213 73.375 69.3713 73.75C69.1213 74.125 68.7671 74.4792 68.3088 74.8125C67.8921 75.1458 67.4546 75.4583 66.9963 75.75C66.5379 76.0417 66.2254 76.3125 66.0588 76.5625C67.6004 77.3958 69.1629 77.625 70.7463 77.25C72.3713 76.875 73.8088 76.1458 75.0588 75.0625C76.3088 73.9792 77.3088 72.6458 78.0588 71.0625C78.8088 69.4792 79.1004 67.8542 78.9338 66.1875C78.7671 64.5208 78.0588 62.9583 76.8088 61.5C75.6004 60 73.6421 58.7917 70.9338 57.875C68.2254 56.9167 65.7879 56.6667 63.6213 57.125C61.4963 57.5833 59.4963 58.9792 57.6213 61.3125C56.6213 61.5625 55.9338 61.3333 55.5588 60.625C55.2254 59.875 55.1213 58.875 55.2463 57.625C55.4129 56.3333 55.7463 54.8958 56.2463 53.3125C56.7879 51.6875 57.3921 50.125 58.0588 48.625C58.7254 47.125 59.4129 45.7917 60.1213 44.625C60.8713 43.4167 61.5379 42.5833 62.1213 42.125C62.7463 41.625 63.7046 41.1875 64.9963 40.8125C66.3296 40.3958 67.7671 40.0625 69.3088 39.8125C70.8921 39.5208 72.4963 39.3542 74.1213 39.3125C75.7463 39.2292 77.1838 39.2917 78.4338 39.5C79.6838 39.7083 80.6421 40.0625 81.3088 40.5625C81.9754 41.0208 82.1421 41.6875 81.8088 42.5625C81.4754 43.4375 80.8296 43.9167 79.8713 44C78.9546 44.0833 77.8504 44.0208 76.5588 43.8125C75.3088 43.6042 73.9338 43.375 72.4338 43.125C70.9338 42.875 69.4546 42.8333 67.9963 43C66.5379 43.1667 65.1629 43.6458 63.8713 44.4375C62.5796 45.2292 61.5171 46.5833 60.6838 48.5C60.5171 48.8333 60.3296 49.25 60.1213 49.75C59.9129 50.25 59.7254 50.7917 59.5588 51.375C59.3921 51.9167 59.2671 52.4583 59.1838 53C59.1004 53.5 59.1004 53.9583 59.1838 54.375C59.9338 54.5833 60.7879 54.625 61.7463 54.5C62.7046 54.3333 63.7463 54.1875 64.8713 54.0625C66.0379 53.8958 67.2879 53.8542 68.6213 53.9375C69.9963 53.9792 71.4338 54.3125 72.9338 54.9375C75.1421 55.8125 76.8921 56.9375 78.1838 58.3125C79.5171 59.6875 80.4546 61.1875 80.9963 62.8125C81.5796 64.4375 81.8088 66.1042 81.6838 67.8125C81.5588 69.5208 81.1421 71.1458 80.4338 72.6875C79.7671 74.2292 78.8296 75.625 77.6213 76.875C76.4129 78.125 74.9963 79.0833 73.3713 79.75C71.7879 80.4167 70.0379 80.7292 68.1213 80.6875C66.2463 80.6458 64.2463 80.1042 62.1213 79.0625Z" fill="white"/>
</svg>
