<svg width="64" height="64" viewBox="0 0 64 64" fill="none" xmlns="http://www.w3.org/2000/svg">
<rect width="64" height="64" rx="32" fill="#4275FA"/>
<path d="M11.2719 47.6875C11.1677 47.6615 10.9594 47.5703 10.6469 47.4141C10.3344 47.2578 10.126 47.1406 10.0219 47.0625C8.82396 45.9427 7.76927 44.875 6.85781 43.8594C5.94635 42.8177 5.19115 41.737 4.59219 40.6172C4.01927 39.4714 3.61563 38.2344 3.38125 36.9062C3.14688 35.5781 3.10781 34.0547 3.26406 32.3359C3.31615 32.2057 3.39427 32.1016 3.49844 32.0234C3.6026 31.9453 3.71979 31.9323 3.85 31.9844C4.03229 33.4688 4.27969 34.8229 4.59219 36.0469C4.90469 37.2708 5.32135 38.4167 5.84219 39.4844C6.38906 40.5521 7.05313 41.5807 7.83438 42.5703C8.61563 43.5339 9.55313 44.5234 10.6469 45.5391C10.9594 45.8255 11.2979 46.0208 11.6625 46.125C12.0531 46.2031 12.4438 46.2161 12.8344 46.1641C13.225 46.0859 13.6026 45.9688 13.9672 45.8125C14.3318 45.6562 14.6573 45.4609 14.9438 45.2266C15.9073 44.4714 16.7016 43.5339 17.3266 42.4141C17.9776 41.2682 18.4594 40.0312 18.7719 38.7031C19.0844 37.375 19.2406 35.9948 19.2406 34.5625C19.2667 33.1042 19.1625 31.6979 18.9281 30.3438C18.6938 28.9635 18.3292 27.6615 17.8344 26.4375C17.3396 25.2135 16.7536 24.1458 16.0766 23.2344C15.0089 23.0781 13.9411 23.0911 12.8734 23.2734C11.8057 23.4557 10.725 23.6771 9.63125 23.9375C8.5375 24.1979 7.44375 24.4323 6.35 24.6406C5.28229 24.8229 4.2276 24.862 3.18594 24.7578C2.6651 24.1328 2.5349 23.6641 2.79531 23.3516C3.08177 23.013 3.52448 22.7786 4.12344 22.6484C4.7224 22.4922 5.36042 22.401 6.0375 22.375C6.71458 22.349 7.18333 22.3229 7.44375 22.2969C7.62604 22.2708 8.01667 22.2188 8.61563 22.1406C9.21458 22.0625 9.8526 21.9844 10.5297 21.9062C11.2068 21.8021 11.8578 21.6979 12.4828 21.5938C13.1339 21.4896 13.6156 21.4115 13.9281 21.3594C14.0583 21.3333 14.3188 21.2943 14.7094 21.2422C15.1 21.1641 15.3474 21.099 15.4516 21.0469C15.9464 20.9948 16.7016 20.9036 17.7172 20.7734C18.7328 20.6432 19.8786 20.5 21.1547 20.3438C22.4307 20.1875 23.7719 20.0182 25.1781 19.8359C26.5844 19.6536 27.9255 19.4844 29.2016 19.3281C30.4776 19.1719 31.6104 19.0286 32.6 18.8984C33.6156 18.7682 34.3708 18.6771 34.8656 18.625C34.8917 18.625 35.0479 18.5729 35.3344 18.4688C35.6469 18.3385 35.9854 18.2214 36.35 18.1172C36.7146 17.987 37.0531 17.8828 37.3656 17.8047C37.6781 17.7005 37.8604 17.6615 37.9125 17.6875C38.4854 17.974 38.85 18.2734 39.0063 18.5859C39.1625 18.8984 39.1885 19.1979 39.0844 19.4844C39.0063 19.7708 38.837 20.0443 38.5766 20.3047C38.3161 20.5391 38.0427 20.7214 37.7563 20.8516C37.4958 20.9818 37.2484 21.0469 37.0141 21.0469C36.8057 21.0469 36.7016 20.9557 36.7016 20.7734H34.2406L20.1 22.6094L18.85 22.8828C19.1885 23.4036 19.488 24.1719 19.7484 25.1875C20.0349 26.2031 20.2563 27.375 20.4125 28.7031C20.5688 30.0312 20.6469 31.4635 20.6469 33C20.6469 34.5104 20.5427 36.0078 20.3344 37.4922C20.126 38.9505 19.8005 40.3438 19.3578 41.6719C18.9151 43 18.3292 44.1458 17.6 45.1094C16.8708 46.0729 15.9854 46.8021 14.9438 47.2969C13.9021 47.7656 12.6781 47.8958 11.2719 47.6875ZM40.3297 48.8984C38.4547 48.4297 36.9964 47.5052 35.9547 46.125C34.9391 44.7448 34.249 43.1302 33.8844 41.2812C33.5198 39.4062 33.4417 37.401 33.65 35.2656C33.8583 33.1042 34.275 31.0208 34.9 29.0156C35.525 27.0104 36.2932 25.1745 37.2047 23.5078C38.1422 21.8151 39.1448 20.513 40.2125 19.6016C41.3062 18.6641 42.413 18.2214 43.5328 18.2734C44.6526 18.3255 45.7203 19.0547 46.7359 20.4609C47.6474 21.7109 48.3115 23.0651 48.7281 24.5234C49.1708 25.9818 49.3271 27.4922 49.1969 29.0547C48.7542 29.6016 48.2854 29.9531 47.7906 30.1094C47.2958 30.2396 46.801 30.2526 46.3062 30.1484C45.8375 30.0443 45.3948 29.862 44.9781 29.6016C44.5615 29.3411 44.2099 29.0677 43.9234 28.7812C43.663 28.4948 43.4937 28.2474 43.4156 28.0391C43.3635 27.8047 43.4547 27.6875 43.6891 27.6875H47.0484C47.0745 27.4271 47.0615 27.0365 47.0094 26.5156C46.9833 25.9688 46.9052 25.3698 46.775 24.7188C46.6448 24.0677 46.4755 23.4167 46.2672 22.7656C46.0589 22.1146 45.7984 21.5417 45.4859 21.0469C45.1734 20.5521 44.8089 20.1875 44.3922 19.9531C44.0016 19.6927 43.5458 19.6406 43.025 19.7969C42.1396 20.1094 41.3583 20.6953 40.6812 21.5547C40.0302 22.4141 39.4573 23.3906 38.9625 24.4844C38.4937 25.5521 38.0901 26.6458 37.7516 27.7656C37.4391 28.8854 37.1656 29.8359 36.9312 30.6172C35.7854 34.3932 35.3036 37.5182 35.4859 39.9922C35.6682 42.4661 36.2802 44.3542 37.3219 45.6562C38.3896 46.9323 39.7828 47.6615 41.5016 47.8438C43.2203 48 45.0432 47.6745 46.9703 46.8672C48.8974 46.0339 50.8115 44.7448 52.7125 43C54.6135 41.2552 56.2802 39.1198 57.7125 36.5938C58.025 36.0729 58.3766 35.5391 58.7672 34.9922C59.1578 34.4453 59.4182 33.8594 59.5484 33.2344C59.3922 33.1823 58.9755 33.2734 58.2984 33.5078C57.6214 33.7161 56.8271 33.9896 55.9156 34.3281C55.0302 34.6406 54.0797 34.9661 53.0641 35.3047C52.0745 35.6172 51.176 35.8646 50.3687 36.0469C49.5615 36.2031 48.9104 36.2552 48.4156 36.2031C47.9208 36.125 47.7385 35.8516 47.8687 35.3828C47.9469 35.0703 48.1812 34.7318 48.5719 34.3672C48.9885 33.9766 49.4573 33.651 49.9781 33.3906C50.525 33.1042 51.0589 32.9089 51.5797 32.8047C52.1005 32.6745 52.5042 32.7135 52.7906 32.9219C53.4417 32.8177 54.1318 32.6094 54.8609 32.2969C55.6161 31.9844 56.3714 31.6719 57.1266 31.3594C57.8818 31.0469 58.624 30.7734 59.3531 30.5391C60.0823 30.2786 60.7594 30.1484 61.3844 30.1484C62.1656 30.1484 62.6604 30.2786 62.8687 30.5391C63.1031 30.7734 63.1812 31.0729 63.1031 31.4375C63.025 31.776 62.8557 32.1406 62.5953 32.5312C62.3609 32.9219 62.1656 33.2474 62.0094 33.5078C61.176 34.9661 60.3167 36.4245 59.4312 37.8828C58.5719 39.3411 57.6474 40.7214 56.6578 42.0234C55.6943 43.2995 54.6526 44.4714 53.5328 45.5391C52.4391 46.6068 51.2281 47.4661 49.9 48.1172C48.5719 48.7682 47.1135 49.1719 45.525 49.3281C43.9625 49.5104 42.2307 49.3672 40.3297 48.8984Z" fill="white"/>
</svg>
