<?xml version="1.0" standalone="no"?>
<!DOCTYPE svg PUBLIC "-//W3C//DTD SVG 20010904//EN"
 "http://www.w3.org/TR/2001/REC-SVG-20010904/DTD/svg10.dtd">
<svg version="1.0" xmlns="http://www.w3.org/2000/svg"
 width="700.000000pt" height="700.000000pt" viewBox="0 0 700.000000 700.000000"
 preserveAspectRatio="xMidYMid meet">
<metadata>
Created by potrace 1.14, written by Peter Selinger 2001-2017
</metadata>
<g transform="translate(0.000000,700.000000) scale(0.100000,-0.100000)"
fill="#000000" stroke="none">
<path d="M3215 6990 c-848 -76 -1598 -424 -2190 -1015 -538 -537 -880 -1219
-989 -1975 -215 -1488 543 -2947 1883 -3624 698 -353 1507 -461 2282 -305 720
145 1389 522 1881 1063 896 984 1159 2373 686 3624 -61 161 -206 454 -298 600
-152 243 -395 535 -597 718 -546 497 -1191 797 -1923 895 -167 23 -575 33
-735 19z m976 -1951 c107 -68 118 -161 31 -253 -64 -67 -190 -111 -206 -71 -4
12 -29 15 -132 15 -96 0 -233 -14 -582 -60 -252 -32 -599 -78 -772 -100 -358
-46 -474 -68 -460 -85 20 -24 72 -171 101 -284 112 -445 115 -1079 8 -1531
-59 -251 -134 -436 -233 -574 -73 -102 -192 -207 -288 -254 -110 -53 -170 -66
-306 -65 -109 1 -116 2 -186 36 -62 31 -95 59 -242 209 -192 196 -282 304
-370 447 -98 160 -167 362 -194 565 -16 116 -10 427 9 449 23 29 49 21 55 -15
84 -525 171 -764 384 -1058 105 -143 361 -405 427 -436 96 -45 241 -23 361 54
245 159 431 508 489 915 20 139 20 481 0 634 -41 309 -139 596 -278 811 l-46
70 -57 8 c-138 17 -293 -4 -724 -100 -306 -68 -371 -77 -511 -74 l-123 3 -23
34 c-48 71 -39 115 32 156 63 37 149 54 347 70 261 21 852 104 968 136 30 8
1110 145 1885 239 244 30 264 35 555 130 14 5 27 9 29 9 2 1 26 -13 52 -30z
m706 -78 c150 -80 315 -308 403 -556 64 -183 99 -412 81 -540 -7 -52 -13 -64
-47 -93 -60 -53 -109 -72 -190 -72 -96 0 -160 21 -252 83 -83 57 -145 127
-140 161 3 20 9 21 198 26 l195 5 -3 90 c-8 251 -102 564 -203 679 -90 104
-176 121 -295 61 -130 -65 -244 -205 -359 -440 -79 -162 -122 -287 -231 -663
-139 -482 -182 -739 -171 -1026 13 -335 91 -560 247 -716 134 -134 284 -193
495 -193 146 -1 234 14 385 63 466 152 976 598 1265 1105 16 28 66 107 111
176 77 117 124 209 124 244 0 25 -14 20 -585 -175 -399 -136 -650 -176 -686
-109 -29 55 41 157 162 238 115 77 286 127 348 101 43 -17 114 4 401 119 307
124 424 161 521 168 110 8 166 -3 202 -38 27 -27 29 -35 25 -83 -5 -57 -4 -55
-321 -590 -275 -464 -458 -710 -704 -946 -147 -142 -262 -225 -418 -301 -197
-96 -390 -139 -624 -139 -302 0 -578 76 -753 209 -187 142 -328 414 -385 746
-24 142 -24 532 0 705 54 386 154 713 317 1045 173 352 336 548 535 645 96 46
108 49 210 46 69 -2 89 -7 142 -35z"/>
</g>
</svg>
